<svg width="32" height="32" viewBox="0 0 32 32" fill="none" xmlns="http://www.w3.org/2000/svg">
<g id="icons/Calendar/Line">
<path id="Shape" fill-rule="evenodd" clip-rule="evenodd" d="M25.3346 7.99998H6.66797C5.93159 7.99998 5.33464 8.59693 5.33464 9.33331V25.3333C5.33464 26.0697 5.93159 26.6666 6.66797 26.6666H25.3346C26.071 26.6666 26.668 26.0697 26.668 25.3333V9.33331C26.668 8.59693 26.071 7.99998 25.3346 7.99998ZM6.66797 5.33331C4.45883 5.33331 2.66797 7.12417 2.66797 9.33331V25.3333C2.66797 27.5425 4.45883 29.3333 6.66797 29.3333H25.3346C27.5438 29.3333 29.3346 27.5425 29.3346 25.3333V9.33331C29.3346 7.12417 27.5438 5.33331 25.3346 5.33331H6.66797Z" fill="#23262F"/>
<path id="Shape_2" fill-rule="evenodd" clip-rule="evenodd" d="M13.3333 16C12.597 16 12 16.597 12 17.3333C12 18.0697 12.597 18.6667 13.3333 18.6667H22.6667C23.403 18.6667 24 18.0697 24 17.3333C24 16.597 23.403 16 22.6667 16H13.3333ZM9.33333 21.3333C8.59695 21.3333 8 21.9303 8 22.6667C8 23.403 8.59695 24 9.33333 24H17.3333C18.0697 24 18.6667 23.403 18.6667 22.6667C18.6667 21.9303 18.0697 21.3333 17.3333 21.3333H9.33333Z" fill="#23262F"/>
<path id="Shape_3" fill-rule="evenodd" clip-rule="evenodd" d="M9.33333 2.66669C8.59695 2.66669 8 3.26364 8 4.00002V9.33335C8 10.0697 8.59695 10.6667 9.33333 10.6667C10.0697 10.6667 10.6667 10.0697 10.6667 9.33335V4.00002C10.6667 3.26364 10.0697 2.66669 9.33333 2.66669ZM22.6667 2.66669C21.9303 2.66669 21.3333 3.26364 21.3333 4.00002V9.33335C21.3333 10.0697 21.9303 10.6667 22.6667 10.6667C23.403 10.6667 24 10.0697 24 9.33335V4.00002C24 3.26364 23.403 2.66669 22.6667 2.66669Z" fill="#23262F"/>
</g>
</svg>
