<svg width="20" height="20" fill="none" xmlns="http://www.w3.org/2000/svg"><path fill-rule="evenodd" clip-rule="evenodd" d="M16.667 5H3.333c-.92 0-1.666.746-1.666 1.667v6.666c0 .92.746 1.667 1.666 1.667h13.334c.92 0 1.666-.746 1.666-1.667V6.667c0-.92-.746-1.667-1.666-1.667zM3.333 3.333A3.333 3.333 0 000 6.667v6.666a3.333 3.333 0 003.333 3.334h13.334A3.333 3.333 0 0020 13.333V6.667a3.333 3.333 0 00-3.333-3.334H3.333z" fill="#777E91"/><path fill-rule="evenodd" clip-rule="evenodd" d="M12.5 7.5c0-.46.373-.833.833-.833h2.084c.69 0 1.25.56 1.25 1.25v1.666c0 .69-.56 1.25-1.25 1.25h-1.25v.834h1.666a.833.833 0 110 1.666H13.75c-.69 0-1.25-.56-1.25-1.25v-1.666c0-.69.56-1.25 1.25-1.25H15v-.834h-1.667A.833.833 0 0112.5 7.5z" fill="#777E91"/><path d="M10.001 7.5a.833.833 0 100 1.667.833.833 0 000-1.667zM10.001 10.833a.833.833 0 100 1.667.833.833 0 000-1.667zM5.835 6.667c.46 0 .833.373.833.833v4.167a.833.833 0 110 1.666H5.001a.833.833 0 110-1.666V8.333a.833.833 0 110-1.666h.834z" fill="#777E91"/></svg>