<svg width="20" height="20" fill="none" xmlns="http://www.w3.org/2000/svg"><path d="M4.167 3.333a.833.833 0 00-1.667 0V5a.833.833 0 001.667 0V3.333zM4.167 10A.833.833 0 002.5 10v5a.833.833 0 001.667 0v-5z" fill="#777E91"/><path fill-rule="evenodd" clip-rule="evenodd" d="M4.165 8.333V6.667a.833.833 0 10-1.666 0v1.666a.833.833 0 101.666 0zm-.833-4.166a2.5 2.5 0 00-2.5 2.5v1.666a2.5 2.5 0 105 0V6.667a2.5 2.5 0 00-2.5-2.5z" fill="#777E91"/><path d="M10.835 6.667a.833.833 0 10-1.667 0v2.5a.833.833 0 001.667 0v-2.5zM10.835 15a.833.833 0 00-1.667 0v1.667a.833.833 0 001.667 0V15z" fill="#777E91"/><path fill-rule="evenodd" clip-rule="evenodd" d="M10.833 13.333v-2.5a.833.833 0 00-1.666 0v2.5a.833.833 0 101.666 0zm-.833-5a2.5 2.5 0 00-2.5 2.5v2.5a2.5 2.5 0 105 0v-2.5a2.5 2.5 0 00-2.5-2.5z" fill="#777E91"/><path d="M17.499 3.333a.833.833 0 00-1.667 0V5a.833.833 0 001.667 0V3.333zM17.499 12.5a.833.833 0 00-1.667 0V15a.833.833 0 001.667 0v-2.5z" fill="#777E91"/><path fill-rule="evenodd" clip-rule="evenodd" d="M17.501 10.833V6.667a.833.833 0 10-1.666 0v4.166a.833.833 0 101.666 0zm-.833-6.666a2.5 2.5 0 00-2.5 2.5v4.166a2.5 2.5 0 005 0V6.667a2.5 2.5 0 00-2.5-2.5z" fill="#777E91"/></svg>