<svg width="20" height="20" fill="none" xmlns="http://www.w3.org/2000/svg"><path fill-rule="evenodd" clip-rule="evenodd" d="M15.835 5H4.168a.833.833 0 00-.833.833v10c0 .46.373.834.833.834h11.667c.46 0 .833-.373.833-.834v-10A.833.833 0 0015.835 5zM4.168 3.333a2.5 2.5 0 00-2.5 2.5v10a2.5 2.5 0 002.5 2.5h11.667a2.5 2.5 0 002.5-2.5v-10a2.5 2.5 0 00-2.5-2.5H4.168z" fill="#777E91"/><path fill-rule="evenodd" clip-rule="evenodd" d="M8.333 10a.833.833 0 000 1.667h5.834a.833.833 0 000-1.667H8.333zm-2.5 3.333a.833.833 0 000 1.667h5a.833.833 0 100-1.667h-5zM5.833 1.667A.833.833 0 005 2.5v3.333a.833.833 0 101.667 0V2.5a.833.833 0 00-.834-.833zm8.334 0a.833.833 0 00-.834.833v3.333a.833.833 0 001.667 0V2.5a.833.833 0 00-.833-.833z" fill="#777E91"/></svg>