<svg width="48" height="48" fill="none" xmlns="http://www.w3.org/2000/svg"><rect width="48" height="48" rx="24" fill="#9757D7"/><path fill-rule="evenodd" clip-rule="evenodd" d="M24 36a8 8 0 100-16 8 8 0 000 16zm0-3a5 5 0 100-10 5 5 0 000 10z" fill="#FCFCFD"/><path d="M27 28a3 3 0 11-6 0 3 3 0 016 0zM28.582 19.11a.52.52 0 00.7-.206l2.923-5.43a1 1 0 00-.88-1.474h-3.733a1 1 0 00-.878.521l-1.446 2.651a.5.5 0 000 .48l1.392 2.55a.514.514 0 00.3.244 9.935 9.935 0 011.622.664zM19.416 19.11a.521.521 0 01-.7-.206l-2.923-5.43a1 1 0 01.88-1.474h3.732a1 1 0 01.878.521l2.575 4.72c.184.338-.068.754-.453.777a10.036 10.036 0 00-3.99 1.092z" fill="#FCFCFD"/></svg>